<svg id="visual" viewBox="0 0 960 300" width="960" height="300" xmlns="http://www.w3.org/2000/svg" xmlns:xlink="http://www.w3.org/1999/xlink" version="1.1"><rect x="0" y="0" width="960" height="300" fill="#333"></rect><path d="M0 82L22.8 87.8C45.7 93.7 91.3 105.3 137 106C182.7 106.7 228.3 96.3 274 96.5C319.7 96.7 365.3 107.3 411.2 110.8C457 114.3 503 110.7 548.8 105.5C594.7 100.3 640.3 93.7 686 88.7C731.7 83.7 777.3 80.3 823 85.7C868.7 91 914.3 105 937.2 112L960 119L960 0L937.2 0C914.3 0 868.7 0 823 0C777.3 0 731.7 0 686 0C640.3 0 594.7 0 548.8 0C503 0 457 0 411.2 0C365.3 0 319.7 0 274 0C228.3 0 182.7 0 137 0C91.3 0 45.7 0 22.8 0L0 0Z" fill="#fa7268"></path><path d="M0 93L22.8 92.7C45.7 92.3 91.3 91.7 137 90.5C182.7 89.3 228.3 87.7 274 83.5C319.7 79.3 365.3 72.7 411.2 75C457 77.3 503 88.7 548.8 90.2C594.7 91.7 640.3 83.3 686 76.7C731.7 70 777.3 65 823 63.7C868.7 62.3 914.3 64.7 937.2 65.8L960 67L960 0L937.2 0C914.3 0 868.7 0 823 0C777.3 0 731.7 0 686 0C640.3 0 594.7 0 548.8 0C503 0 457 0 411.2 0C365.3 0 319.7 0 274 0C228.3 0 182.7 0 137 0C91.3 0 45.7 0 22.8 0L0 0Z" fill="#ef5f67"></path><path d="M0 55L22.8 55.2C45.7 55.3 91.3 55.7 137 56.5C182.7 57.3 228.3 58.7 274 59.5C319.7 60.3 365.3 60.7 411.2 61.3C457 62 503 63 548.8 60.8C594.7 58.7 640.3 53.3 686 52.7C731.7 52 777.3 56 823 56.8C868.7 57.7 914.3 55.3 937.2 54.2L960 53L960 0L937.2 0C914.3 0 868.7 0 823 0C777.3 0 731.7 0 686 0C640.3 0 594.7 0 548.8 0C503 0 457 0 411.2 0C365.3 0 319.7 0 274 0C228.3 0 182.7 0 137 0C91.3 0 45.7 0 22.8 0L0 0Z" fill="#e34c67"></path><path d="M0 48L22.8 46.7C45.7 45.3 91.3 42.7 137 41.3C182.7 40 228.3 40 274 41.7C319.7 43.3 365.3 46.7 411.2 45.7C457 44.7 503 39.3 548.8 37.5C594.7 35.7 640.3 37.3 686 40.8C731.7 44.3 777.3 49.7 823 50.2C868.7 50.7 914.3 46.3 937.2 44.2L960 42L960 0L937.2 0C914.3 0 868.7 0 823 0C777.3 0 731.7 0 686 0C640.3 0 594.7 0 548.8 0C503 0 457 0 411.2 0C365.3 0 319.7 0 274 0C228.3 0 182.7 0 137 0C91.3 0 45.7 0 22.8 0L0 0Z" fill="#d53867"></path><path d="M0 17L22.8 19.2C45.7 21.3 91.3 25.7 137 25.7C182.7 25.7 228.3 21.3 274 19.8C319.7 18.3 365.3 19.7 411.2 20C457 20.3 503 19.7 548.8 21.8C594.7 24 640.3 29 686 29.8C731.7 30.7 777.3 27.3 823 25C868.7 22.7 914.3 21.3 937.2 20.7L960 20L960 0L937.2 0C914.3 0 868.7 0 823 0C777.3 0 731.7 0 686 0C640.3 0 594.7 0 548.8 0C503 0 457 0 411.2 0C365.3 0 319.7 0 274 0C228.3 0 182.7 0 137 0C91.3 0 45.7 0 22.8 0L0 0Z" fill="#c62368"></path></svg>